<?xml version="1.0" standalone="no"?>
<!DOCTYPE svg PUBLIC "-//W3C//DTD SVG 20010904//EN"
 "http://www.w3.org/TR/2001/REC-SVG-20010904/DTD/svg10.dtd">
<svg version="1.0" xmlns="http://www.w3.org/2000/svg"
 width="680.000000pt" height="680.000000pt" viewBox="0 0 680.000000 680.000000"
 preserveAspectRatio="xMidYMid meet">
<metadata>
Created by potrace 1.14, written by Peter Selinger 2001-2017
</metadata>
<g transform="translate(0.000000,680.000000) scale(0.100000,-0.100000)"
fill="#000000" stroke="none">
<path d="M3189 6796 c-2 -2 -35 -7 -74 -10 -76 -7 -99 -10 -220 -32 -119 -22
-165 -35 -165 -48 0 -7 27 -80 59 -162 32 -82 82 -210 111 -284 28 -74 57
-148 65 -165 7 -16 16 -40 20 -53 6 -21 11 -23 48 -18 23 3 53 8 67 11 110 23
455 24 565 1 94 -19 103 -18 110 6 3 13 10 32 15 43 5 11 29 74 55 140 25 66
50 129 55 140 53 126 130 339 127 349 -5 12 -113 39 -207 52 -25 3 -56 8 -70
10 -14 3 -45 7 -70 9 -54 6 -486 15 -491 11z"/>
<path d="M4649 6378 c-18 -46 -34 -85 -35 -88 -1 -6 -21 -56 -39 -95 -37 -82
-55 -129 -55 -141 0 -8 -5 -14 -12 -14 -6 0 -9 -3 -6 -6 6 -5 -9 -45 -52 -139
-21 -46 -50 -116 -50 -121 0 -2 33 -26 73 -53 39 -27 82 -57 94 -67 12 -11 37
-30 55 -44 43 -32 231 -221 283 -285 l41 -49 39 22 c22 12 110 53 195 93 85
39 202 94 260 121 58 28 122 57 143 65 20 8 37 19 37 23 0 8 -100 151 -123
175 -6 7 -22 26 -34 42 -80 104 -282 302 -408 400 -5 5 -28 22 -50 39 -47 37
-222 154 -229 154 -3 0 -22 11 -42 25 -20 14 -40 25 -44 25 -3 0 -22 -37 -41
-82z"/>
<path d="M1799 6288 c-41 -28 -79 -57 -85 -62 -6 -6 -33 -29 -60 -51 -142
-118 -291 -271 -411 -425 -85 -109 -231 -336 -221 -345 2 -2 44 -19 93 -39 50
-21 104 -43 120 -51 17 -7 55 -23 85 -35 30 -12 69 -28 85 -35 48 -22 303
-125 309 -125 3 0 6 6 6 14 0 8 3 16 8 18 9 4 52 65 52 73 0 4 6 12 13 19 6 7
21 25 32 40 11 15 31 42 45 59 34 44 214 223 279 277 l53 45 -69 145 c-38 80
-110 232 -159 338 -49 105 -92 192 -95 192 -3 0 -39 -23 -80 -52z"/>
<path d="M5740 4795 c-113 -51 -221 -100 -240 -109 -19 -8 -78 -35 -131 -60
l-97 -44 14 -52 c7 -28 16 -70 19 -93 3 -23 8 -49 10 -57 17 -66 24 -333 12
-480 l-7 -85 207 -70 c115 -38 213 -70 218 -71 6 -1 29 -9 53 -18 23 -8 44
-16 47 -16 7 -1 38 -11 60 -20 49 -19 125 -38 129 -32 2 4 7 32 11 62 4 30 9
64 11 74 9 51 27 299 25 346 -1 8 -1 24 -1 35 2 30 2 32 -4 136 -2 52 -7 113
-10 135 -3 21 -8 57 -10 79 -8 63 -17 119 -22 137 -7 22 -14 58 -18 88 -5 31
-35 150 -43 170 -3 8 -7 19 -7 24 -1 5 -5 11 -11 12 -5 1 -102 -39 -215 -91z"/>
<path d="M755 4739 c-4 -10 -8 -31 -11 -46 -3 -16 -7 -36 -10 -46 -3 -10 -7
-30 -9 -45 -3 -15 -6 -36 -9 -48 -2 -12 -7 -45 -11 -75 -4 -30 -9 -65 -12 -79
-8 -49 -11 -486 -3 -545 5 -33 11 -85 15 -115 6 -49 13 -92 30 -170 2 -14 7
-38 11 -55 10 -54 15 -65 28 -65 12 0 115 39 161 60 11 5 49 20 85 33 68 25
365 140 413 160 26 11 27 14 21 65 -3 29 -7 63 -10 75 -23 109 -23 420 0 547
3 14 7 41 10 61 l5 35 -112 43 c-62 23 -121 46 -132 51 -11 5 -54 22 -95 38
-41 16 -84 33 -95 37 -11 5 -22 9 -25 10 -6 1 -91 34 -177 68 -60 24 -62 25
-68 6z"/>
<path d="M4994 2997 c-32 -45 -60 -84 -63 -87 -3 -3 -19 -23 -36 -45 -16 -22
-76 -87 -134 -146 -59 -58 -124 -118 -146 -134 -51 -38 -55 -44 -45 -69 7 -18
72 -158 142 -306 12 -25 22 -47 23 -50 1 -3 22 -48 46 -100 25 -52 56 -119 69
-147 13 -29 26 -53 29 -53 12 0 69 39 151 104 166 130 281 242 440 426 44 50
146 196 213 302 46 73 55 94 45 103 -7 7 -49 26 -93 45 -44 18 -93 38 -110 46
-16 7 -68 28 -115 47 -47 19 -98 40 -115 47 -52 22 -89 38 -130 55 -22 9 -57
23 -77 30 l-37 14 -57 -82z"/>
<path d="M1480 2764 c-184 -86 -337 -158 -339 -160 -4 -4 77 -126 111 -166 13
-15 33 -40 45 -55 80 -100 278 -298 372 -371 12 -9 34 -27 49 -40 59 -49 338
-232 355 -232 2 0 12 21 22 48 10 26 29 71 43 101 13 30 25 60 27 65 2 13 20
58 40 101 8 16 26 59 41 95 14 36 31 76 37 90 6 14 11 27 12 30 1 3 9 22 18
43 23 51 47 109 47 113 0 1 -37 29 -82 60 -46 32 -85 61 -88 64 -3 3 -23 18
-45 35 -54 40 -242 229 -285 287 -19 26 -37 48 -40 48 -3 0 -156 -70 -340
-156z"/>
<path d="M2952 2073 c-73 -192 -182 -477 -192 -498 -5 -11 -16 -37 -24 -57
-16 -41 -15 -42 51 -54 16 -3 60 -11 98 -19 102 -20 249 -37 332 -39 40 0 73
-4 73 -8 0 -4 6 -5 13 -3 6 3 75 7 152 10 135 4 211 10 285 20 70 11 156 25
180 31 14 3 41 9 61 13 51 11 61 19 49 39 -6 9 -31 71 -56 137 -25 66 -49 129
-54 140 -4 11 -27 70 -50 130 -23 61 -56 145 -73 188 l-32 79 -50 -7 c-27 -4
-61 -9 -75 -11 -129 -18 -312 -22 -440 -11 -70 6 -97 10 -176 22 l-31 5 -41
-107z"/>
<path d="M2290 1078 c-110 -55 -87 -233 34 -254 22 -4 507 -7 1077 -7 1082 0
1055 -1 1100 42 60 58 51 163 -20 216 -26 20 -44 20 -1089 21 -1028 1 -1064 0
-1102 -18z"/>
<path d="M2370 690 c-36 -3 -72 -9 -80 -14 -25 -15 -64 -66 -67 -86 -1 -11 -4
-23 -5 -27 -5 -19 14 -80 32 -101 43 -52 7 -50 1133 -51 950 -1 1052 1 1080
16 58 30 87 88 75 149 -10 46 -55 100 -91 109 -28 8 -1987 12 -2077 5z"/>
<path d="M2692 269 c-41 -25 -60 -51 -70 -96 -12 -53 11 -110 59 -144 l34 -24
660 0 c716 1 695 -1 737 56 50 68 32 166 -39 204 -35 19 -61 20 -695 20 -596
1 -662 -1 -686 -16z"/>
</g>
</svg>
